<svg xmlns="http://www.w3.org/2000/svg" viewBox="0 0 128 128" fill="#acacb5">
  <path d="M124.8 52.1c-4.3-2.5-10-2.8-14.8-1.4-.6-5.2-4-9.7-8-12.9l-1.6-1.3-1.4 1.6c-2.7 3.1-3.5 8.3-3.1 12.3.3 2.9 1.2 5.9 3 8.3-1.4.8-2.9 1.9-4.3 2.4-2.8 1-5.9 2-8.9 2H79V49H66V24H51v12H26v13H13v14H1.8l-.2 1.5c-.5 6.4.3 12.6 3 18.5l1.1 2.2.1.2c7.9 13.4 21.7 19 36.8 19 29.2 0 53.3-13.1 64.3-40.6 7.4.4 15-1.8 18.6-8.9l.9-1.8-1.6-1zM28 39h10v11H28V39zm13.1 44.2c0 1.7-1.4 3.1-3.1 3.1-1.7 0-3.1-1.4-3.1-3.1 0-1.7 1.4-3.1 3.1-3.1 1.7.1 3.1 1.4 3.1 3.1zM28 52h10v11H28V52zm-13 0h11v11H15V52z"/>
</svg>