<svg xmlns="http://www.w3.org/2000/svg" viewBox="0 0 24 24" fill="#acacb5"><path d="M13.983 11.078h2.119c.695 0 1.259.562 1.259 1.257 0 .696-.564 1.258-1.259 1.258h-2.119c-.695 0-1.259-.562-1.259-1.258 0-.695.564-1.257 1.259-1.257zM24 12.156c0 .595-.39 1.15-.808 1.507-.51.434-1.158.434-1.596.434h-2.233c-.033 0-.065-.01-.098-.01-.033.01-.065.01-.098.01H13.92c-.032 0-.065-.01-.098-.01-.033.01-.065.01-.098.01H9.33c-.033 0-.065-.01-.098-.01-.033.01-.065.01-.098.01H6.51c-.033 0-.065-.01-.098-.01-.033.01-.065.01-.098.01H2.43c-.033 0-.065-.01-.098-.01-.033.01-.065.01-.098.01H.808c-.418 0-.808-.512-.808-1.107 0-.595.39-1.15.808-1.507.51-.434 1.158-.434 1.596-.434h2.233c.033 0 .065.01.098.01.033-.01.065-.01.098-.01H6.51c.032 0 .065.01.098.01.033-.01.065-.01.098-.01H9.33c.032 0 .065.01.098.01.033-.01.065-.01.098-.01H13.92c.032 0 .065.01.098.01.033-.01.065-.01.098-.01H16.2c.032 0 .065.01.098.01.033-.01.065-.01.098-.01h2.233c.032 0 .065.01.098.01.033-.01.065-.01.098-.01h2.463c.418 0 .808.512.808 1.107zM16.102 8.53h2.119c.695 0 1.259.562 1.259 1.257 0 .696-.564 1.258-1.259 1.258h-2.119c-.695 0-1.259-.562-1.259-1.258 0-.695.564-1.257 1.259-1.257zm-2.902 0h2.119c.695 0 1.259.562 1.259 1.257 0 .696-.564 1.258-1.259 1.258H13.2c-.695 0-1.259-.562-1.259-1.258 0-.695.564-1.257 1.259-1.257zm-2.903 0h2.119c.695 0 1.259.562 1.259 1.257 0 .696-.564 1.258-1.259 1.258h-2.119c-.695 0-1.259-.562-1.259-1.258 0-.695.564-1.257 1.259-1.257zm-2.902 0h2.119c.695 0 1.259.562 1.259 1.257 0 .696-.564 1.258-1.259 1.258H7.395c-.695 0-1.259-.562-1.259-1.258 0-.695.564-1.257 1.259-1.257zm-2.903 0h2.119c.695 0 1.259.562 1.259 1.257 0 .696-.564 1.258-1.259 1.258h-2.119c-.695 0-1.259-.562-1.259-1.258 0-.695.564-1.257 1.259-1.257z"/></svg>