<svg xmlns="http://www.w3.org/2000/svg" viewBox="0 0 128 128" fill="#000000"><path d="M64 0C28.7 0 0 28.7 0 64s28.7 64 64 64 64-28.7 64-64S99.3 0 64 0zm-1.2 113.5c-27.2 0-49.3-22.1-49.3-49.3S35.6 14.9 62.8 14.9 112.1 37 112.1 64.2 89.9 113.5 62.8 113.5zm11.3-33.7l-34.7-34c-1.1-1.1-1.1-2.8 0-3.9 1.1-1.1 2.8-1.1 3.9 0l34.7 34c1.1 1.1 1.1 2.8 0 3.9-1.1 1.1-2.8 1.1-3.9 0zm12.5-10.2c-.3.3-.7.4-1.1.4s-.8-.1-1.1-.4L64 57.9 47.6 73.2c-.3.3-.7.4-1.1.4s-.8-.1-1.1-.4c-.6-.6-.6-1.6 0-2.2l17.4-16.6c.6-.6 1.6-.6 2.2 0l17.4 16.6c.6.6.6 1.6 0 2.2z"/></svg>